<svg width="16" height="16" viewBox="0 0 16 16" fill="none" xmlns="http://www.w3.org/2000/svg">
<g id="lucide/flame">
<path id="Vector" d="M8.00004 2C8.44448 3.77778 9.33337 5.22222 10.6667 6.33333C12 7.44444 12.6667 8.66667 12.6667 10C12.6667 11.2377 12.175 12.4247 11.2999 13.2998C10.4247 14.175 9.23772 14.6667 8.00004 14.6667C6.76236 14.6667 5.57538 14.175 4.70021 13.2998C3.82504 12.4247 3.33337 11.2377 3.33337 10C3.33337 9.27877 3.5673 8.57699 4.00004 8C4.00004 8.44203 4.17564 8.86595 4.4882 9.17851C4.80076 9.49107 5.22468 9.66667 5.66671 9.66667C6.10873 9.66667 6.53266 9.49107 6.84522 9.17851C7.15778 8.86595 7.33337 8.44203 7.33337 8C7.33337 6.66667 6.33337 6 6.33337 4.66667C6.33337 3.77778 6.88893 2.88889 8.00004 2Z" stroke="white" stroke-width="1.5" stroke-linecap="round" stroke-linejoin="round"/>
</g>
</svg>
