<svg width="16" height="16" viewBox="0 0 16 16" fill="none" xmlns="http://www.w3.org/2000/svg">
<g id="Icon/cart" clip-path="url(#clip0_206_907)">
<path id="Vector" d="M1.3667 1.36664H2.70003L4.47337 9.64664C4.53842 9.94988 4.70715 10.221 4.95051 10.4132C5.19387 10.6055 5.49664 10.7069 5.8067 10.7H12.3267C12.6301 10.6995 12.9244 10.5955 13.1607 10.4052C13.3971 10.2149 13.5615 9.94966 13.6267 9.6533L14.7267 4.69997H3.41337M6.00003 14C6.00003 14.3682 5.70156 14.6666 5.33337 14.6666C4.96518 14.6666 4.6667 14.3682 4.6667 14C4.6667 13.6318 4.96518 13.3333 5.33337 13.3333C5.70156 13.3333 6.00003 13.6318 6.00003 14ZM13.3334 14C13.3334 14.3682 13.0349 14.6666 12.6667 14.6666C12.2985 14.6666 12 14.3682 12 14C12 13.6318 12.2985 13.3333 12.6667 13.3333C13.0349 13.3333 13.3334 13.6318 13.3334 14Z" stroke="white" stroke-width="1.5" stroke-linecap="round" stroke-linejoin="round"/>
</g>
<defs>
<clipPath id="clip0_206_907">
<rect width="16" height="16" fill="white"/>
</clipPath>
</defs>
</svg>
