<svg width="16" height="16" viewBox="0 0 16 16" fill="none" xmlns="http://www.w3.org/2000/svg">
<g id="lucide/leaf">
<path id="Vector" d="M1.33337 14C1.33337 12 2.56671 10.4267 4.72004 10C6.33337 9.68004 8.00004 8.66671 8.66671 8.00004M7.33337 13.3334C6.16275 13.3369 5.03354 12.9004 4.16972 12.1103C3.3059 11.3203 2.77055 10.2344 2.66986 9.06811C2.56918 7.90182 2.9105 6.74028 3.62614 5.81387C4.34178 4.88746 5.37946 4.26384 6.53337 4.06671C10.3334 3.33337 11.3334 2.98671 12.6667 1.33337C13.3334 2.66671 14 4.12004 14 6.66671C14 10.3334 10.8134 13.3334 7.33337 13.3334Z" stroke="white" stroke-width="1.5" stroke-linecap="round" stroke-linejoin="round"/>
</g>
</svg>
