<svg width="40" height="40" viewBox="0 0 40 40" fill="none" xmlns="http://www.w3.org/2000/svg">
<g id="pizza logo" clip-path="url(#clip0_74_7526)">
<g id="Group">
<g id="Group_2">
<path id="Vector" d="M35.4055 21.3724L19.9199 5.88684L12.7042 7.59714L10.7757 12.4778L11.2469 16.1933L8.31137 18.7143L0.652587 38.0973C0.359039 38.8785 1.12228 39.6418 1.90351 39.3482L7.24465 37.2353L8.847 34.9862L11.712 35.4681L15.9018 33.8107C16.6991 33.4952 17.5634 34.0829 17.5634 34.9403V34.9666C17.5634 35.6375 18.1074 36.1813 18.7782 36.1813C19.4492 36.1813 19.993 35.6374 19.993 34.9666V33.0179C19.993 32.5195 20.2974 32.0717 20.761 31.8883C21.5583 31.5729 22.4226 32.1605 22.4226 33.0179V37.0146C22.4226 37.6855 22.9665 38.2294 23.6374 38.2294C24.3083 38.2294 24.8522 37.6855 24.8522 37.0146V31.0957C24.8522 30.5973 25.1566 30.1494 25.6201 29.9661L32.3692 27.2962L35.4055 21.3724Z" fill="#FCD258"/>
<g id="Group_3">
<path id="Vector_2" d="M19.9199 5.88684L12.7042 7.59721L11.5998 10.3923L10.7757 12.4779L11.2469 16.1934L8.31137 18.7143L0.652587 38.0973C0.359039 38.8785 1.12228 39.6418 1.90351 39.3482L3.04947 38.8949C2.92565 38.6651 2.89202 38.3824 2.9991 38.0973L12.9881 12.8173C13.3297 11.9528 14.2239 11.4322 15.1422 11.5769C18.9449 12.1762 22.5858 13.9441 25.4947 16.853C28.5909 19.9492 29.2133 24.3186 29.6978 28.353L32.3692 27.2962L35.4055 21.3724L19.9199 5.88684Z" fill="#F9B044"/>
</g>
<g id="Group_4">
<path id="Vector_3" d="M11.356 6.18472C10.9124 7.54148 11.8736 8.94923 13.2986 9.03206C17.7557 9.29096 22.1182 11.1301 25.4947 14.5065C28.8847 17.8965 30.7093 22.2592 30.9684 26.6961C31.0517 28.1231 32.461 29.0854 33.8189 28.6392L37.9172 27.2925C38.8912 26.9724 39.5065 26.016 39.402 24.996C38.7837 18.9596 36.1619 13.0897 31.5367 8.46444C30.2976 7.2254 28.9692 6.13005 27.5722 5.17854C23.7512 2.5761 19.4169 1.04922 14.9937 0.597987C13.9724 0.493801 13.0151 1.11015 12.6961 2.08591L11.356 6.18472Z" fill="#D98A54"/>
</g>
<g id="Group_5">
<path id="Vector_4" d="M13.8577 7.00937L15.1978 2.91055C15.5168 1.9348 16.4741 1.31844 17.4954 1.42263C19.0219 1.57836 20.5378 1.86221 22.0256 2.27418C19.7524 1.40073 17.386 0.842024 14.9936 0.597987C13.9723 0.493801 13.015 1.11015 12.696 2.08591L11.356 6.18472C10.9124 7.54148 11.8736 8.94923 13.2986 9.03206C13.6286 9.05122 13.958 9.07915 14.2865 9.1156C13.8063 8.56424 13.6063 7.77863 13.8577 7.00937Z" fill="#C27742"/>
</g>
<path id="Vector_5" d="M23.0885 26.7472C24.798 26.7472 26.1839 25.3613 26.1839 23.6517C26.1839 21.9422 24.798 20.5563 23.0885 20.5563C21.3789 20.5563 19.993 21.9422 19.993 23.6517C19.993 25.3613 21.3789 26.7472 23.0885 26.7472Z" fill="#E94442"/>
<path id="Vector_6" d="M22.3396 23.6517C22.3396 22.3575 23.1339 21.2487 24.2617 20.7864C23.8999 20.6381 23.5037 20.5563 23.0885 20.5563C21.3789 20.5563 19.993 21.9421 19.993 23.6517C19.993 25.3613 21.3789 26.7472 23.0885 26.7472C23.5037 26.7472 23.8999 26.6653 24.2617 26.517C23.1339 26.0548 22.3396 24.946 22.3396 23.6517Z" fill="#CF3636"/>
<path id="Vector_7" d="M10.0593 26.5025C10.7293 26.5025 11.2724 25.9593 11.2724 25.2893C11.2724 24.6193 10.7293 24.0762 10.0593 24.0762C9.38927 24.0762 8.84613 24.6193 8.84613 25.2893C8.84613 25.9593 9.38927 26.5025 10.0593 26.5025Z" fill="#A0D94C"/>
<path id="Vector_8" d="M17.3399 30.7873C18.0099 30.7873 18.5531 30.2441 18.5531 29.5741C18.5531 28.9041 18.0099 28.361 17.3399 28.361C16.6699 28.361 16.1268 28.9041 16.1268 29.5741C16.1268 30.2441 16.6699 30.7873 17.3399 30.7873Z" fill="#A0D94C"/>
<path id="Vector_9" d="M11.9996 34.0748C11.9996 32.182 10.4652 30.6477 8.57255 30.6477C6.67977 30.6477 5.14539 32.1821 5.14539 34.0748C5.14539 35.4967 6.01141 36.7163 7.24473 37.2352L11.703 35.4715C11.8936 35.0449 11.9996 34.5722 11.9996 34.0748Z" fill="#E94442"/>
<path id="Vector_10" d="M7.4919 34.0748C7.4919 32.5941 8.43082 31.3329 9.7458 30.8538C9.37983 30.7204 8.98467 30.6477 8.57255 30.6477C6.67977 30.6477 5.14539 32.1821 5.14539 34.0748C5.14539 35.4967 6.01141 36.7163 7.24473 37.2352L8.67845 36.668C7.95166 36.0396 7.4919 35.1109 7.4919 34.0748Z" fill="#CF3636"/>
<path id="Vector_11" d="M11.4894 12.4099C11.2462 12.4099 11.0083 12.4319 10.7773 12.474L8.31146 18.7144C9.03169 19.6861 10.187 20.3161 11.4894 20.3161C13.6726 20.3161 15.4425 18.5463 15.4425 16.363C15.4425 14.1798 13.6727 12.4099 11.4894 12.4099Z" fill="#E94442"/>
<path id="Vector_12" d="M13.0266 12.7199C12.5541 12.5203 12.0347 12.4099 11.4895 12.4099C11.2463 12.4099 11.0084 12.4319 10.7773 12.474L8.31152 18.7144C8.76573 19.3273 9.39311 19.8042 10.1212 20.0728L13.0266 12.7199Z" fill="#CF3636"/>
</g>
<g id="Group_6">
<path id="Vector_13" d="M39.9859 24.9363C38.9668 14.9892 32.7626 6.62015 24.1524 2.54661C23.8596 2.40808 23.5098 2.53308 23.3712 2.82592C23.2327 3.11877 23.3577 3.46855 23.6506 3.60708C31.9613 7.53921 37.8488 15.5885 38.8187 25.0559C38.8959 25.8094 38.4499 26.5 37.7342 26.7353L33.636 28.082C32.6428 28.4081 31.6152 27.7048 31.5542 26.662C30.9812 16.8474 23.1478 9.01641 13.3329 8.44637C12.2912 8.38598 11.5898 7.35798 11.9138 6.36704L13.2539 2.26831C13.4883 1.55137 14.1797 1.10522 14.9344 1.18156C17.1231 1.40479 19.2783 1.89694 21.34 2.6443C21.6446 2.75506 21.981 2.59737 22.0914 2.29271C22.2018 1.98814 22.0444 1.65173 21.7398 1.54136C19.5876 0.761145 17.338 0.247415 15.0535 0.0144062C13.7656 -0.117624 12.5397 0.677609 12.1387 1.90358L10.7986 6.0024C10.4532 7.05895 10.7719 8.17589 11.5592 8.89925C10.4216 11.7782 5.83934 23.3748 4.82643 25.9382C4.70746 26.2395 4.85514 26.5803 5.15651 26.6994C5.4553 26.8175 5.79765 26.6731 5.91764 26.3693L8.51664 19.7918C11.4531 22.3285 16.0293 20.2429 16.0293 16.3629C16.0293 13.9039 14.0784 11.9178 11.6643 11.8259L12.586 9.49315C12.8032 9.56167 13.0308 9.6039 13.2649 9.61751C22.4854 10.1531 29.8446 17.5099 30.3829 26.7302C30.3965 26.9621 30.438 27.1875 30.5053 27.4026L25.4046 29.4204C24.7127 29.694 24.2657 30.3515 24.2657 31.0955V37.0145C24.2657 37.3608 23.9839 37.6426 23.6376 37.6426C23.2912 37.6426 23.0094 37.3607 23.0094 37.0145V33.0179C23.0094 31.7472 21.7267 30.8755 20.5453 31.3428C19.8535 31.6165 19.4065 32.274 19.4065 33.0179V34.9664C19.4065 35.3129 19.1247 35.5946 18.7784 35.5946C18.432 35.5946 18.1502 35.3128 18.1502 34.9664V34.9401C18.1502 33.6715 16.8698 32.7971 15.6862 33.265L12.5655 34.4995C12.8111 32.1884 11.01 30.061 8.57264 30.061C4.85803 30.061 3.14867 34.7039 5.95096 37.1161L1.69368 38.8003C1.3866 38.9128 1.08789 38.6148 1.20052 38.3072L4.97669 28.7506C5.09565 28.4493 4.94798 28.1085 4.64661 27.9895C4.3454 27.8705 4.0046 28.0181 3.88548 28.3195L0.10728 37.8817C0.106107 37.8847 0.104934 37.8878 0.10376 37.8908C-0.368436 39.1473 0.860511 40.3669 2.11011 39.8972C2.11331 39.8961 2.11644 39.8949 2.11957 39.8936L16.1179 34.356C16.5297 34.1926 16.9771 34.4952 16.9771 34.9401V34.9664C16.9771 35.9597 17.7852 36.7678 18.7785 36.7678C19.7718 36.7678 20.5798 35.9597 20.5798 34.9664V33.0179C20.5798 32.7585 20.7357 32.5292 20.9769 32.4338C21.3873 32.2713 21.8362 32.5713 21.8362 33.0179V37.0146C21.8362 38.0079 22.6443 38.816 23.6376 38.816C24.6308 38.816 25.439 38.0079 25.439 37.0146V31.0956C25.439 30.8363 25.5949 30.607 25.8361 30.5115L31.096 28.4308C31.8145 29.2175 32.9349 29.5475 34.0023 29.1965L38.1005 27.8498C39.3247 27.4475 40.1177 26.2221 39.9859 24.9363ZM14.8561 16.363C14.8561 19.4509 11.0233 20.8949 8.98328 18.611L11.1969 13.0088C13.1616 12.8376 14.8561 14.3879 14.8561 16.363ZM5.73226 34.0748C5.73226 32.5086 7.0065 31.2344 8.57272 31.2344C10.594 31.2344 11.8829 33.2355 11.2528 35.0189L7.26399 36.5969C6.3264 36.1107 5.73226 35.1443 5.73226 34.0748Z" fill="#0A0A0A"/>
<path id="Vector_14" d="M19.4064 23.6517C19.4064 25.3255 20.5361 26.7904 22.1537 27.2139C22.469 27.2961 22.7881 27.1068 22.8697 26.795C22.9518 26.4816 22.7642 26.161 22.4508 26.0789C21.3491 25.7905 20.5796 24.7924 20.5796 23.6518C20.5796 22.2684 21.7051 21.143 23.0884 21.143C25.5535 21.143 26.5346 24.3461 24.4946 25.7299C24.2264 25.9118 24.1565 26.2766 24.3384 26.5447C24.5201 26.8128 24.8851 26.8828 25.1531 26.7009C26.1658 26.014 26.7705 24.8742 26.7705 23.6518C26.7705 21.6216 25.1188 19.9698 23.0885 19.9698C21.0582 19.9698 19.4064 21.6214 19.4064 23.6517Z" fill="#0A0A0A"/>
<path id="Vector_15" d="M10.837 23.6661C9.93981 23.2364 8.86604 23.6143 8.43624 24.5114C8.00628 25.4084 8.38438 26.4825 9.28161 26.9122C10.1745 27.3402 11.2527 26.9636 11.6823 26.0669C12.1111 25.1719 11.7319 24.095 10.837 23.6661ZM10.6243 25.5599C10.475 25.8714 10.0999 26.0034 9.78854 25.8542C9.47629 25.7046 9.34466 25.3308 9.49428 25.0184C9.64352 24.707 10.0183 24.5748 10.33 24.7241C10.6415 24.8734 10.7735 25.2484 10.6243 25.5599Z" fill="#0A0A0A"/>
<path id="Vector_16" d="M15.7168 28.7962C15.2881 29.6911 15.6672 30.7681 16.5622 31.197C17.4559 31.6251 18.5336 31.2477 18.963 30.3516C19.3917 29.4567 19.0126 28.3797 18.1176 27.9508C17.2225 27.522 16.1458 27.9015 15.7168 28.7962ZM17.6106 29.0089C17.9221 29.1582 18.0542 29.5331 17.9049 29.8447C17.7556 30.1561 17.3807 30.2884 17.0692 30.139C16.7576 29.9897 16.6256 29.6148 16.7748 29.3033C16.9241 28.9918 17.299 28.8595 17.6106 29.0089Z" fill="#0A0A0A"/>
<path id="Vector_17" d="M23.8148 18.1645C24.1312 18.1645 24.4014 17.9078 24.4014 17.5778C24.4014 17.2602 24.1439 16.9912 23.8144 16.9912C23.4959 16.9912 23.2274 17.249 23.2274 17.5778C23.2274 17.9146 23.5051 18.1645 23.8148 18.1645Z" fill="#0A0A0A"/>
<path id="Vector_18" d="M17.9422 19.5629C17.9422 19.8948 18.2142 20.1503 18.5288 20.1503C18.8564 20.1503 19.1155 19.884 19.1155 19.5629C19.1155 19.2305 18.844 18.9766 18.5304 18.9766C18.2073 18.9766 17.9422 19.2386 17.9422 19.5629Z" fill="#0A0A0A"/>
<path id="Vector_19" d="M28.3733 26.03C28.3733 25.698 28.1012 25.444 27.7887 25.444C27.4625 25.444 27.2001 25.7061 27.2001 26.03C27.2001 26.352 27.4622 26.6166 27.7867 26.6166C28.1128 26.6166 28.3733 26.3492 28.3733 26.03Z" fill="#0A0A0A"/>
<path id="Vector_20" d="M17.3398 24.7025C17.0102 24.7025 16.7533 24.971 16.7533 25.2891C16.7533 25.6204 17.0228 25.8758 17.3399 25.8758C17.6671 25.8758 17.9266 25.608 17.9266 25.2891C17.9266 24.966 17.6636 24.7025 17.3398 24.7025Z" fill="#0A0A0A"/>
<path id="Vector_21" d="M11.4127 28.7496C11.4127 29.0704 11.6755 29.3362 11.9993 29.3362C12.3185 29.3362 12.586 29.0772 12.586 28.7496C12.586 28.4208 12.3192 28.1627 11.9994 28.1627C11.6753 28.1626 11.4127 28.4268 11.4127 28.7496Z" fill="#0A0A0A"/>
<path id="Vector_22" d="M16.4354 21.3264C14.9647 21.3667 14.0136 22.5465 13.9739 22.5967C13.7735 22.8497 13.8161 23.2159 14.0681 23.4176C14.3206 23.6197 14.689 23.578 14.8917 23.3275C14.8982 23.3195 15.5522 22.5242 16.4675 22.4992C16.7914 22.4904 17.0467 22.2206 17.0378 21.8968C17.029 21.5729 16.7572 21.3174 16.4354 21.3264Z" fill="#0A0A0A"/>
<path id="Vector_23" d="M18.6211 13.8966C18.3474 14.0699 18.2659 14.4323 18.4393 14.706C18.4448 14.7146 18.9776 15.5929 18.6993 16.4644C18.6007 16.773 18.771 17.1031 19.0796 17.2017C19.39 17.3007 19.7189 17.1283 19.8169 16.8213C20.2645 15.4198 19.4648 14.1325 19.4306 14.0785C19.2573 13.8047 18.8947 13.7233 18.6211 13.8966Z" fill="#0A0A0A"/>
<path id="Vector_24" d="M36.0812 25.3359C36.3916 25.4349 36.7205 25.2625 36.8185 24.9555C37.2661 23.5541 36.4664 22.2668 36.4322 22.2127C36.2595 21.94 35.8998 21.8594 35.6262 22.0306C35.3526 22.2018 35.2695 22.5633 35.4392 22.8378C35.4446 22.8465 35.9793 23.7265 35.7009 24.5987C35.6023 24.9072 35.7726 25.2373 36.0812 25.3359Z" fill="#0A0A0A"/>
<path id="Vector_25" d="M16.4513 2.98804C16.1336 2.98804 15.8647 3.24654 15.8647 3.57467C15.8647 3.89489 16.1248 4.16129 16.4514 4.16129C16.7799 4.16129 17.038 3.89293 17.038 3.57467C17.0381 3.24342 16.7664 2.98804 16.4513 2.98804Z" fill="#0A0A0A"/>
<path id="Vector_26" d="M14.4334 6.01652C14.7574 6.01652 15.0201 5.75388 15.0201 5.42989C15.0201 5.1059 14.7574 4.84326 14.4334 4.84326C14.1094 4.84326 13.8468 5.1059 13.8468 5.42989C13.8468 5.75388 14.1094 6.01652 14.4334 6.01652Z" fill="#0A0A0A"/>
<path id="Vector_27" d="M17.997 6.47331C18.321 6.47331 18.5836 6.21066 18.5836 5.88668C18.5836 5.56269 18.321 5.30005 17.997 5.30005C17.673 5.30005 17.4103 5.56269 17.4103 5.88668C17.4103 6.21066 17.673 6.47331 17.997 6.47331Z" fill="#0A0A0A"/>
</g>
</g>
</g>
<defs>
<clipPath id="clip0_74_7526">
<rect width="40" height="40" fill="white"/>
</clipPath>
</defs>
</svg>
