<svg width="95" height="95" viewBox="0 0 95 95" fill="none" xmlns="http://www.w3.org/2000/svg">
<g id="fi_14849152">
<g id="_x33_9_Checkmark">
<g id="Group">
<path id="Vector" d="M47.4998 92.6922C72.4587 92.6922 92.6918 72.4591 92.6918 47.5002C92.6918 22.5414 72.4587 2.30823 47.4998 2.30823C22.541 2.30823 2.30786 22.5414 2.30786 47.5002C2.30786 72.4591 22.541 92.6922 47.4998 92.6922Z" fill="#28BF6C"/>
<path id="Vector_2" d="M72.5465 38.224L38.966 68.5351C36.8131 70.4783 33.5152 70.3941 31.4645 68.3432L22.2536 59.1323C20.1258 57.0045 20.1265 53.5544 22.2551 51.4275C24.382 49.3022 27.8289 49.3022 29.9557 51.4277L35.5115 56.98L65.2443 30.1352C67.4768 28.1196 70.9202 28.295 72.9365 30.5267L72.9385 30.529C74.956 32.7618 74.7803 36.2076 72.5465 38.224Z" fill="white"/>
<path id="Vector_3" d="M47.5 1.17822C21.9576 1.17822 1.17822 21.9582 1.17822 47.5C1.17822 73.0418 21.9576 93.8218 47.5 93.8218C65.1266 93.8218 80.9907 84.0349 88.902 68.2803C89.1818 67.7226 88.9567 67.0437 88.3988 66.7635C87.8418 66.484 87.1631 66.7084 86.8823 67.2661C79.3577 82.2524 64.2669 91.5622 47.5 91.5622C23.2039 91.5622 3.43781 71.7959 3.43781 47.5C3.43781 23.2041 23.2039 3.43781 47.5 3.43781C71.7961 3.43781 91.5622 23.2039 91.5622 47.5C91.5622 50.8426 91.1853 54.1756 90.443 57.406C90.3027 58.0142 90.6821 58.6206 91.2904 58.7605C91.9003 58.9004 92.5049 58.52 92.6443 57.9127C93.4254 54.5157 93.8218 51.0126 93.8218 47.5C93.8218 21.9582 73.0424 1.17822 47.5 1.17822Z" fill="#007032"/>
<path id="Vector_4" d="M64.4868 29.2966L35.5515 55.4223L30.7542 50.6285C28.1918 48.068 24.0203 48.0658 21.4563 50.6282C18.884 53.1995 18.8827 57.3596 21.4544 59.9313L30.6659 69.1422C33.1396 71.6159 37.117 71.7248 39.7228 69.3734L73.3034 39.0625C75.9729 36.6531 76.2403 32.4973 73.7747 29.769C71.3431 27.078 67.178 26.8667 64.4868 29.2966ZM71.789 37.3857L38.2084 67.6966C36.5004 69.2387 33.8896 69.1702 32.2636 67.5448L23.0522 58.3339C21.3644 56.6453 21.3646 53.9144 23.054 52.2268C24.7364 50.5454 27.4743 50.5458 29.1566 52.2272L34.713 57.7795C35.1394 58.2053 35.8243 58.2222 36.2692 57.8188L66.0014 30.9737C67.7677 29.3778 70.5039 29.519 72.0998 31.2862C73.7 33.0561 73.5625 35.7855 71.789 37.3857Z" fill="#007032"/>
</g>
</g>
<path id="Vector_5" opacity="0.4" d="M92.1814 46.5224C92.1814 71.4775 71.9534 91.7144 46.9894 91.7144C35.4834 91.7144 24.9809 87.4121 17 80.3259C23.5799 84.1402 31.2173 86.3274 39.3701 86.3274C64.0269 86.3274 84.0197 66.3255 84.0197 41.6778C84.0197 26.4841 76.4366 13.0713 64.8583 5C80.9378 11.9233 92.1814 27.9032 92.1814 46.5224Z" fill="white"/>
</g>
</svg>
